<mxGraphModel><root><mxCell id="0"/><mxCell id="1" parent="0"/><mxCell id="2" value="Start" style="ellipse;aspect=fixed;strokeWidth=2;whiteSpace=wrap;" vertex="1" parent="1"><mxGeometry y="12" width="50" height="50" as="geometry"/></mxCell><mxCell id="3" value="Data Preprocessing" style="shape=hexagon;perimeter=hexagonPerimeter2;fixedSize=1;strokeWidth=2;whiteSpace=wrap;" vertex="1" parent="1"><mxGeometry x="100" y="21" width="167" height="33" as="geometry"/></mxCell><mxCell id="4" value="Feature Engineering" style="shape=hexagon;perimeter=hexagonPerimeter2;fixedSize=1;strokeWidth=2;whiteSpace=wrap;" vertex="1" parent="1"><mxGeometry x="318" y="21" width="176" height="33" as="geometry"/></mxCell><mxCell id="5" value="Model Training" style="shape=hexagon;perimeter=hexagonPerimeter2;fixedSize=1;strokeWidth=2;whiteSpace=wrap;" vertex="1" parent="1"><mxGeometry x="543" y="21" width="135" height="33" as="geometry"/></mxCell><mxCell id="6" value="Model Evaluation" style="shape=hexagon;perimeter=hexagonPerimeter2;fixedSize=1;strokeWidth=2;whiteSpace=wrap;" vertex="1" parent="1"><mxGeometry x="729" y="21" width="154" height="33" as="geometry"/></mxCell><mxCell id="7" value="Decision" style="ellipse;aspect=fixed;strokeWidth=2;whiteSpace=wrap;" vertex="1" parent="1"><mxGeometry x="932" width="74" height="74" as="geometry"/></mxCell><mxCell id="8" value="Trade Execution" style="shape=hexagon;perimeter=hexagonPerimeter2;fixedSize=1;strokeWidth=2;whiteSpace=wrap;" vertex="1" parent="1"><mxGeometry x="1111" y="46" width="147" height="33" as="geometry"/></mxCell><mxCell id="9" value="Profit/Loss Calculations" style="shape=hexagon;perimeter=hexagonPerimeter2;fixedSize=1;strokeWidth=2;whiteSpace=wrap;" vertex="1" parent="1"><mxGeometry x="1334" y="46" width="202" height="33" as="geometry"/></mxCell><mxCell id="10" value="End" style="ellipse;aspect=fixed;strokeWidth=2;whiteSpace=wrap;" vertex="1" parent="1"><mxGeometry x="1586" y="17" width="41" height="41" as="geometry"/></mxCell><mxCell id="11" value="" style="curved=1;startArrow=none;endArrow=block;exitX=1.0066143798828124;exitY=0.5039236450195312;entryX=0.0019803532583270956;entryY=0.4907934015447443;" edge="1" parent="1" source="2" target="3"><mxGeometry relative="1" as="geometry"><Array as="points"/></mxGeometry></mxCell><mxCell id="12" value="" style="curved=1;startArrow=none;endArrow=block;exitX=1.003363055383374;exitY=0.4907934015447443;entryX=-0.0024907372214577413;entryY=0.4907934015447443;" edge="1" parent="1" source="3" target="4"><mxGeometry relative="1" as="geometry"><Array as="points"/></mxGeometry></mxCell><mxCell id="13" value="" style="curved=1;startArrow=none;endArrow=block;exitX=0.9958718906749379;exitY=0.4907934015447443;entryX=0.0020255759910300926;entryY=0.4907934015447443;" edge="1" parent="1" source="4" target="5"><mxGeometry relative="1" as="geometry"><Array as="points"/></mxGeometry></mxCell><mxCell id="14" value="" style="curved=1;startArrow=none;endArrow=block;exitX=1.0042118778935185;exitY=0.4907934015447443;entryX=-0.002801275872564935;entryY=0.4907934015447443;" edge="1" parent="1" source="5" target="6"><mxGeometry relative="1" as="geometry"><Array as="points"/></mxGeometry></mxCell><mxCell id="15" value="" style="curved=1;startArrow=none;endArrow=block;exitX=0.995237177068537;exitY=0.4907934015447443;entryX=0.003601692818306588;entryY=0.5026511114996832;" edge="1" parent="1" source="6" target="7"><mxGeometry relative="1" as="geometry"><Array as="points"/></mxGeometry></mxCell><mxCell id="16" value="Fail" style="curved=1;startArrow=none;endArrow=block;exitX=1.0089039158176731;exitY=0.3571945490957817;entryX=-0.008258028728205984;entryY=0.20782422875578607;" edge="1" parent="1" source="7" target="10"><mxGeometry relative="1" as="geometry"><Array as="points"><mxPoint x="1059" y="11"/><mxPoint x="1561" y="11"/></Array></mxGeometry></mxCell><mxCell id="17" value="Success" style="curved=1;startArrow=none;endArrow=block;exitX=1.0089039158176731;exitY=0.6481076739035848;entryX=-0.0012930785717607356;entryY=0.5160459460634174;" edge="1" parent="1" source="7" target="8"><mxGeometry relative="1" as="geometry"><Array as="points"><mxPoint x="1059" y="63"/></Array></mxGeometry></mxCell><mxCell id="18" value="" style="curved=1;startArrow=none;endArrow=block;exitX=0.999096695257693;exitY=0.5160459460634174;entryX=-0.00019323707807182087;entryY=0.5160459460634174;" edge="1" parent="1" source="8" target="9"><mxGeometry relative="1" as="geometry"><Array as="points"/></mxGeometry></mxCell><mxCell id="19" value="" style="curved=1;startArrow=none;endArrow=block;exitX=0.9983238654561563;exitY=0.5160459460634174;entryX=-0.008258028728205984;entryY=0.7773553932430707;" edge="1" parent="1" source="9" target="10"><mxGeometry relative="1" as="geometry"><Array as="points"><mxPoint x="1561" y="63"/></Array></mxGeometry></mxCell></root></mxGraphModel>